<?xml version="1.0" encoding="UTF-8"?>
<svg version="1.1" xmlns="http://www.w3.org/2000/svg" width="58" height="52">
<path d="M0 0 C1.67542976 0.28604898 3.34385343 0.61781233 5 1 C5 1.66 5 2.32 5 3 C7.65228812 4.07525194 10.28368454 5.09456151 13 6 C13 6.66 13 7.32 13 8 C13.70125 8.20625 14.4025 8.4125 15.125 8.625 C18.80173359 10.3834378 21.47295079 12.80428141 24 16 C24 16.66 24 17.32 24 18 C28.62 16.35 33.24 14.7 38 13 C43.40748495 18.40748495 44.45413692 21.650259 45.04296875 29.10546875 C44.97824022 33.46581782 43.67371796 37.02284842 42 41 C41.67 41.99 41.34 42.98 41 44 C40.34 44 39.68 44 39 44 C39 44.66 39 45.32 39 46 C38.34 46 37.68 46 37 46 C37 46.66 37 47.32 37 48 C27.09969474 52.14012765 18.46683241 52.93922486 8 50 C2.43808951 47.61432519 -2.73642651 45.28591903 -6 40 C-6 39.34 -6 38.68 -6 38 C-6.66 38 -7.32 38 -8 38 C-11.54862776 25.32632942 -12.33484045 17.94864215 -6 6 C-4.43977076 3.96003268 -3.01380873 2.62223481 -1 1 C-0.67 0.67 -0.34 0.34 0 0 Z " fill="#85BA56" transform="translate(12,0)"/>
<path d="M0 0 C0.99 0.33 1.98 0.66 3 1 C2.96519531 1.94101563 2.93039063 2.88203125 2.89453125 3.8515625 C2.85392578 5.71941406 2.85392578 5.71941406 2.8125 7.625 C2.76029297 9.46964844 2.76029297 9.46964844 2.70703125 11.3515625 C3.12038592 16.49920593 4.9197004 19.70364048 8.1875 23.625 C16.44973801 30.60200098 25.41860678 31.82689033 36 31 C38.60718944 30.25574102 40.5841498 29.2850267 43 28 C43.99 27.67 44.98 27.34 46 27 C47.16953416 24.57616923 47.16953416 24.57616923 48 22 C48.33 21.34 48.66 20.68 49 20 C49.22622081 18.29636178 49.40888473 16.58671299 49.5625 14.875 C49.64628906 13.96492188 49.73007812 13.05484375 49.81640625 12.1171875 C49.90728516 11.06917969 49.90728516 11.06917969 50 10 C52.3473025 12.11891631 52.98534194 12.94764979 53.875 16.125 C54.03156197 20.97842094 52.74732431 24.5365379 51 29 C50.505 30.485 50.505 30.485 50 32 C49.34 32 48.68 32 48 32 C48 32.66 48 33.32 48 34 C47.34 34 46.68 34 46 34 C46 34.66 46 35.32 46 36 C36.09969474 40.14012765 27.46683241 40.93922486 17 38 C11.43808951 35.61432519 6.26357349 33.28591903 3 28 C3 27.34 3 26.68 3 26 C2.34 26 1.68 26 1 26 C-1.57745674 16.79479737 -3.68364591 9.20911479 0 0 Z " fill="#080808" transform="translate(3,12)"/>
<path d="M0 0 C2.59659584 2.03889743 3.53270171 4.27890254 4.69140625 7.328125 C4.37890625 9.703125 4.37890625 9.703125 3.69140625 11.328125 C3.36140625 10.668125 3.03140625 10.008125 2.69140625 9.328125 C2.665625 9.89660156 2.63984375 10.46507812 2.61328125 11.05078125 C2.18553331 16.87398622 1.13921456 20.57574057 -2.30859375 25.328125 C-7.8054441 29.67979819 -11.68512106 30.46533666 -18.55859375 30.390625 C-19.63625 30.38160156 -20.71390625 30.37257813 -21.82421875 30.36328125 C-22.6440625 30.35167969 -23.46390625 30.34007813 -24.30859375 30.328125 C-23.6846875 29.72355469 -23.06078125 29.11898437 -22.41796875 28.49609375 C-20.46922964 26.493223 -19.08497188 24.46627456 -17.58984375 22.12109375 C-14.83012516 18.25917048 -11.50999111 14.82479687 -8.30859375 11.328125 C-10.61859375 12.978125 -12.92859375 14.628125 -15.30859375 16.328125 C-15.96859375 12.038125 -16.62859375 7.748125 -17.30859375 3.328125 C-16.64859375 2.998125 -15.98859375 2.668125 -15.30859375 2.328125 C-15.30859375 2.988125 -15.30859375 3.648125 -15.30859375 4.328125 C-14.4165625 3.94398437 -13.52453125 3.55984375 -12.60546875 3.1640625 C-11.435 2.68195312 -10.26453125 2.19984375 -9.05859375 1.703125 C-7.8984375 1.21585938 -6.73828125 0.72859375 -5.54296875 0.2265625 C-2.30859375 -0.671875 -2.30859375 -0.671875 0 0 Z " fill="#61883E" transform="translate(51.30859375,13.671875)"/>
<path d="M0 0 C0.99 0.33 1.98 0.66 3 1 C3 5.95 3 10.9 3 16 C2.34 16 1.68 16 1 16 C1 16.66 1 17.32 1 18 C0.34 18 -0.32 18 -1 18 C-2.04559253 11.41276707 -1.83292414 6.40766041 0 0 Z " fill="#121212" transform="translate(3,12)"/>
<path d="M0 0 C3.5678289 3.5678289 3.66081816 5.08186327 4 10 C3.5625 12.9375 3.5625 12.9375 3 15 C2.01 15.33 1.02 15.66 0 16 C0.33 14.68 0.66 13.36 1 12 C0.34 12 -0.32 12 -1 12 C-0.67 8.04 -0.34 4.08 0 0 Z " fill="#101010" transform="translate(53,22)"/>
<path d="M0 0 C5.73344559 4.91438194 9.72239607 11.57104038 10.8125 19.125 C10.874375 20.07375 10.93625 21.0225 11 22 C8.58037117 19.58037117 7.8680925 17.43295023 6.625 14.25 C4.79452449 9.71998048 2.81547343 5.96251817 0 2 C0 1.34 0 0.68 0 0 Z " fill="#699443" transform="translate(18,15)"/>
<path d="M0 0 C0.33 0 0.66 0 1 0 C1.33 2.31 1.66 4.62 2 7 C3.65 5.35 5.3 3.7 7 2 C7.66 2.33 8.32 2.66 9 3 C6.03 6.3 3.06 9.6 0 13 C-0.89377528 9.42489889 -1.0258444 7.75082437 -0.5625 4.25 C-0.46066406 3.45078125 -0.35882813 2.6515625 -0.25390625 1.828125 C-0.17011719 1.22484375 -0.08632813 0.6215625 0 0 Z " fill="#78A54F" transform="translate(35,22)"/>
<path d="M0 0 C0.99 0.33 1.98 0.66 3 1 C2.34 3.97 1.68 6.94 1 10 C-0.625 8.375 -0.625 8.375 -2 6 C-1.1875 2.75 -1.1875 2.75 0 0 Z " fill="#202020" transform="translate(3,12)"/>
<path d="M0 0 C2.83374881 3.20336822 3.5205537 5.78087253 4 10 C1.2027092 7.93243723 0.97307727 6.85559629 0.3125 3.3125 C0.209375 2.219375 0.10625 1.12625 0 0 Z " fill="#414141" transform="translate(52,15)"/>
</svg>
